<!-- SVG icon for notifications (192x192) -->
<svg width="192" height="192" viewBox="0 0 192 192" fill="none" xmlns="http://www.w3.org/2000/svg">
  <rect width="192" height="192" rx="32" fill="#FF6B6B"/>
  <path d="M96 48C82.7452 48 72 58.7452 72 72V80.4C72 84.4 70.8 88.3 68.6 91.6L64.4 98.4C60.8 103.6 64.4 111.2 70.8 111.2H121.2C127.6 111.2 131.2 103.6 127.6 98.4L123.4 91.6C121.2 88.3 120 84.4 120 80.4V72C120 58.7452 109.255 48 96 48Z" fill="white"/>
  <path d="M84 120C84 126.627 89.3726 132 96 132C102.627 132 108 126.627 108 120H84Z" fill="white"/>
  <circle cx="132" cy="60" r="12" fill="#FFD93D"/>
</svg>
